<mxfile host="app.diagrams.net" modified="2022-01-12T06:57:16.925Z" agent="5.0 (X11; Linux x86_64) AppleWebKit/537.36 (KHTML, like Gecko) Chrome/97.0.4692.71 Safari/537.36" etag="CoajMPDYGy5qHDp_57Uj" version="16.2.4" type="github">
  <diagram id="jj3xHHucEN8dlPECbigM" name="Page-1">
    <mxGraphModel dx="1206" dy="557" grid="1" gridSize="10" guides="1" tooltips="1" connect="1" arrows="1" fold="1" page="1" pageScale="1" pageWidth="827" pageHeight="1169" math="0" shadow="0">
      <root>
        <mxCell id="0" />
        <mxCell id="1" parent="0" />
        <mxCell id="lxAP7GYC1z0yp7wpPDmo-1" value="&lt;font style=&quot;font-size: 24px&quot;&gt;web版的3d飛行路徑演示&lt;/font&gt;" style="ellipse;whiteSpace=wrap;html=1;aspect=fixed;" vertex="1" parent="1">
          <mxGeometry x="30" y="300" width="150" height="150" as="geometry" />
        </mxCell>
        <mxCell id="lxAP7GYC1z0yp7wpPDmo-2" value="js進行一般的web演示" style="rounded=1;whiteSpace=wrap;html=1;fontSize=24;" vertex="1" parent="1">
          <mxGeometry x="290" y="160" width="270" height="60" as="geometry" />
        </mxCell>
        <mxCell id="lxAP7GYC1z0yp7wpPDmo-3" value="動態演示" style="rounded=1;whiteSpace=wrap;html=1;fontSize=24;" vertex="1" parent="1">
          <mxGeometry x="610" y="160" width="120" height="60" as="geometry" />
        </mxCell>
        <mxCell id="lxAP7GYC1z0yp7wpPDmo-4" value="" style="endArrow=classic;html=1;rounded=0;fontSize=24;exitX=1;exitY=0.5;exitDx=0;exitDy=0;entryX=0;entryY=0.5;entryDx=0;entryDy=0;" edge="1" parent="1" source="lxAP7GYC1z0yp7wpPDmo-1" target="lxAP7GYC1z0yp7wpPDmo-2">
          <mxGeometry width="50" height="50" relative="1" as="geometry">
            <mxPoint x="390" y="260" as="sourcePoint" />
            <mxPoint x="440" y="210" as="targetPoint" />
          </mxGeometry>
        </mxCell>
        <mxCell id="lxAP7GYC1z0yp7wpPDmo-5" value="" style="endArrow=classic;html=1;rounded=0;fontSize=24;exitX=1;exitY=0.5;exitDx=0;exitDy=0;entryX=0;entryY=0.5;entryDx=0;entryDy=0;" edge="1" parent="1" source="lxAP7GYC1z0yp7wpPDmo-2" target="lxAP7GYC1z0yp7wpPDmo-3">
          <mxGeometry width="50" height="50" relative="1" as="geometry">
            <mxPoint x="390" y="260" as="sourcePoint" />
            <mxPoint x="440" y="210" as="targetPoint" />
          </mxGeometry>
        </mxCell>
        <mxCell id="lxAP7GYC1z0yp7wpPDmo-6" value="3d模型彩現" style="rounded=1;whiteSpace=wrap;html=1;fontSize=24;" vertex="1" parent="1">
          <mxGeometry x="270" y="310" width="266" height="60" as="geometry" />
        </mxCell>
        <mxCell id="lxAP7GYC1z0yp7wpPDmo-7" value="" style="endArrow=classic;html=1;rounded=0;fontSize=24;entryX=0;entryY=0.5;entryDx=0;entryDy=0;" edge="1" parent="1" target="lxAP7GYC1z0yp7wpPDmo-6">
          <mxGeometry width="50" height="50" relative="1" as="geometry">
            <mxPoint x="180" y="375" as="sourcePoint" />
            <mxPoint x="290" y="280" as="targetPoint" />
          </mxGeometry>
        </mxCell>
        <mxCell id="lxAP7GYC1z0yp7wpPDmo-8" value="" style="endArrow=classic;html=1;rounded=0;fontSize=24;exitX=1;exitY=0.5;exitDx=0;exitDy=0;" edge="1" parent="1" source="lxAP7GYC1z0yp7wpPDmo-6">
          <mxGeometry width="50" height="50" relative="1" as="geometry">
            <mxPoint x="390" y="370" as="sourcePoint" />
            <mxPoint x="630" y="340" as="targetPoint" />
          </mxGeometry>
        </mxCell>
        <mxCell id="lxAP7GYC1z0yp7wpPDmo-9" value="" style="endArrow=classic;html=1;rounded=0;fontSize=24;exitX=0.5;exitY=1;exitDx=0;exitDy=0;" edge="1" parent="1" source="lxAP7GYC1z0yp7wpPDmo-3" target="lxAP7GYC1z0yp7wpPDmo-10">
          <mxGeometry width="50" height="50" relative="1" as="geometry">
            <mxPoint x="390" y="370" as="sourcePoint" />
            <mxPoint x="670" y="290" as="targetPoint" />
          </mxGeometry>
        </mxCell>
        <mxCell id="lxAP7GYC1z0yp7wpPDmo-10" value="web版的3d演示" style="rounded=1;whiteSpace=wrap;html=1;fontSize=24;" vertex="1" parent="1">
          <mxGeometry x="630" y="310" width="120" height="60" as="geometry" />
        </mxCell>
        <mxCell id="lxAP7GYC1z0yp7wpPDmo-11" value="地圖api" style="rounded=1;whiteSpace=wrap;html=1;fontSize=24;" vertex="1" parent="1">
          <mxGeometry x="270" y="450" width="270" height="60" as="geometry" />
        </mxCell>
        <mxCell id="lxAP7GYC1z0yp7wpPDmo-12" value="" style="endArrow=classic;html=1;rounded=0;fontSize=24;exitX=1;exitY=0.5;exitDx=0;exitDy=0;entryX=0;entryY=0.5;entryDx=0;entryDy=0;" edge="1" parent="1" source="lxAP7GYC1z0yp7wpPDmo-1" target="lxAP7GYC1z0yp7wpPDmo-11">
          <mxGeometry width="50" height="50" relative="1" as="geometry">
            <mxPoint x="390" y="460" as="sourcePoint" />
            <mxPoint x="440" y="410" as="targetPoint" />
          </mxGeometry>
        </mxCell>
        <mxCell id="lxAP7GYC1z0yp7wpPDmo-13" value="" style="endArrow=classic;html=1;rounded=0;fontSize=24;exitX=1;exitY=0.5;exitDx=0;exitDy=0;" edge="1" parent="1" source="lxAP7GYC1z0yp7wpPDmo-11">
          <mxGeometry width="50" height="50" relative="1" as="geometry">
            <mxPoint x="390" y="460" as="sourcePoint" />
            <mxPoint x="620" y="480" as="targetPoint" />
          </mxGeometry>
        </mxCell>
        <mxCell id="lxAP7GYC1z0yp7wpPDmo-14" value="" style="endArrow=classic;html=1;rounded=0;fontSize=24;exitX=1;exitY=1;exitDx=0;exitDy=0;" edge="1" parent="1" source="lxAP7GYC1z0yp7wpPDmo-6" target="lxAP7GYC1z0yp7wpPDmo-15">
          <mxGeometry width="50" height="50" relative="1" as="geometry">
            <mxPoint x="390" y="460" as="sourcePoint" />
            <mxPoint x="620" y="460" as="targetPoint" />
          </mxGeometry>
        </mxCell>
        <mxCell id="lxAP7GYC1z0yp7wpPDmo-15" value="3d路徑演示的檔案" style="rounded=1;whiteSpace=wrap;html=1;fontSize=24;" vertex="1" parent="1">
          <mxGeometry x="620" y="450" width="120" height="60" as="geometry" />
        </mxCell>
        <mxCell id="lxAP7GYC1z0yp7wpPDmo-16" value="" style="endArrow=classic;html=1;rounded=0;fontSize=24;exitX=1;exitY=0.5;exitDx=0;exitDy=0;" edge="1" parent="1" source="lxAP7GYC1z0yp7wpPDmo-10">
          <mxGeometry width="50" height="50" relative="1" as="geometry">
            <mxPoint x="510" y="450" as="sourcePoint" />
            <mxPoint x="850" y="340" as="targetPoint" />
          </mxGeometry>
        </mxCell>
        <mxCell id="lxAP7GYC1z0yp7wpPDmo-17" value="" style="endArrow=classic;html=1;rounded=0;fontSize=24;exitX=1;exitY=0.5;exitDx=0;exitDy=0;entryX=0.5;entryY=1;entryDx=0;entryDy=0;" edge="1" parent="1" source="lxAP7GYC1z0yp7wpPDmo-15" target="lxAP7GYC1z0yp7wpPDmo-19">
          <mxGeometry width="50" height="50" relative="1" as="geometry">
            <mxPoint x="510" y="450" as="sourcePoint" />
            <mxPoint x="889.2857142857142" y="370" as="targetPoint" />
          </mxGeometry>
        </mxCell>
        <mxCell id="lxAP7GYC1z0yp7wpPDmo-19" value="&lt;span&gt;web版的3d飛行路徑演示&lt;/span&gt;" style="ellipse;whiteSpace=wrap;html=1;aspect=fixed;fontSize=24;" vertex="1" parent="1">
          <mxGeometry x="850" y="275" width="150" height="150" as="geometry" />
        </mxCell>
      </root>
    </mxGraphModel>
  </diagram>
</mxfile>
